<?xml version="1.0" encoding="UTF-8" standalone="no"?>
<svg xmlns="http://www.w3.org/2000/svg" xmlns:xlink="http://www.w3.org/1999/xlink" contentScriptType="application/ecmascript" contentStyleType="text/css" height="307px"
     preserveAspectRatio="none" style="width:698px;height:307px;" version="1.1" viewBox="0 0 698 307" width="698px" zoomAndPan="magnify">
    <defs>
        <filter height="300%" id="fl3jsvt" width="300%" x="-1" y="-1">
            <feGaussianBlur result="blurOut" stdDeviation="2.0"/>
            <feColorMatrix in="blurOut" result="blurOut2" type="matrix" values="0 0 0 0 0 0 0 0 0 0 0 0 0 0 0 0 0 0 .4 0"/>
            <feOffset dx="4.0" dy="4.0" in="blurOut2" result="blurOut3"/>
            <feBlend in="SourceGraphic" in2="blurOut3" mode="normal"/>
        </filter>
    </defs>
    <g><!--class Client-->
        <rect fill="#FEFECE" filter="url(#fl3jsvt)" height="60.9551" style="stroke: #A80036; stroke-width: 1.5;" width="96" x="78.5" y="14.5"/>
        <ellipse cx="107.9" cy="30.5" fill="#ADD1B2" rx="11" ry="11" style="stroke: #A80036; stroke-width: 1.0;"/>
        <path d="M110.8731,36.1431 Q110.2921,36.4419 109.6529,36.5913 Q109.0138,36.7407 108.3082,36.7407 Q105.8014,36.7407 104.4815,35.0889 Q103.1617,33.437 103.1617,30.3159 Q103.1617,27.1865 104.4815,25.5347 Q105.8014,23.8828 108.3082,23.8828 Q109.0138,23.8828 109.6612,24.0322 Q110.3087,24.1816 110.8731,24.4805 L110.8731,27.2031 Q110.2423,26.6221 109.6488,26.3523 Q109.0553,26.0825 108.4244,26.0825 Q107.0797,26.0825 106.3949,27.1492 Q105.7101,28.2158 105.7101,30.3159 Q105.7101,32.4077 106.3949,33.4744 Q107.0797,34.541 108.4244,34.541 Q109.0553,34.541 109.6488,34.2712 Q110.2423,34.0015 110.8731,33.4204 Z "/>
        <text fill="#000000" font-family="sans-serif" font-size="12" lengthAdjust="spacingAndGlyphs" textLength="32" x="125.1" y="35.0352">Client</text>
        <line style="stroke: #A80036; stroke-width: 1.5;" x1="79.5" x2="173.5" y1="46.5" y2="46.5"/>
        <text fill="#000000" font-family="sans-serif" font-size="11" lengthAdjust="spacingAndGlyphs" textLength="84" x="84.5" y="61.1348">factory:IFactory</text>
        <line style="stroke: #A80036; stroke-width: 1.5;" x1="79.5" x2="173.5" y1="67.4551" y2="67.4551"/><!--class IFactory-->
        <rect fill="#FEFECE" filter="url(#fl3jsvt)" height="73.9102" style="stroke: #A80036; stroke-width: 1.5;" width="324" x="209.5" y="8"/>
        <ellipse cx="345.25" cy="24" fill="#B4A7E5" rx="11" ry="11" style="stroke: #A80036; stroke-width: 1.0;"/>
        <path d="M341.1777,19.7651 L341.1777,17.6069 L348.5571,17.6069 L348.5571,19.7651 L346.0918,19.7651 L346.0918,27.8418 L348.5571,27.8418 L348.5571,30 L341.1777,30 L341.1777,27.8418 L343.6431,27.8418 L343.6431,19.7651 Z "/>
        <text fill="#000000" font-family="sans-serif" font-size="12" font-style="italic" lengthAdjust="spacingAndGlyphs" textLength="44" x="365.75" y="28.5352">IFactory</text>
        <line style="stroke: #A80036; stroke-width: 1.5;" x1="210.5" x2="532.5" y1="40" y2="40"/>
        <line style="stroke: #A80036; stroke-width: 1.5;" x1="210.5" x2="532.5" y1="48" y2="48"/>
        <text fill="#000000" font-family="sans-serif" font-size="11" lengthAdjust="spacingAndGlyphs" textLength="302" x="215.5" y="62.6348">createText(x:number, y:number,
            text:string):ITextWidget
        </text>
        <text fill="#000000" font-family="sans-serif" font-size="11" lengthAdjust="spacingAndGlyphs" textLength="312" x="215.5" y="75.5898">createImage(x:number, y:number,
            url:string):IImageWidget
        </text><!--class ITextWidget-->
        <rect fill="#FEFECE" filter="url(#fl3jsvt)" height="48" style="stroke: #A80036; stroke-width: 1.5;" width="100" x="76.5" y="142"/>
        <ellipse cx="91.5" cy="158" fill="#B4A7E5" rx="11" ry="11" style="stroke: #A80036; stroke-width: 1.0;"/>
        <path d="M87.4277,153.7651 L87.4277,151.6069 L94.8071,151.6069 L94.8071,153.7651 L92.3418,153.7651 L92.3418,161.8418 L94.8071,161.8418 L94.8071,164 L87.4277,164 L87.4277,161.8418 L89.8931,161.8418 L89.8931,153.7651 Z "/>
        <text fill="#000000" font-family="sans-serif" font-size="12" font-style="italic" lengthAdjust="spacingAndGlyphs" textLength="68" x="105.5" y="162.5352">ITextWidget</text>
        <line style="stroke: #A80036; stroke-width: 1.5;" x1="77.5" x2="175.5" y1="174" y2="174"/>
        <line style="stroke: #A80036; stroke-width: 1.5;" x1="77.5" x2="175.5" y1="182" y2="182"/><!--class IImageWidget-->
        <rect fill="#FEFECE" filter="url(#fl3jsvt)" height="48" style="stroke: #A80036; stroke-width: 1.5;" width="109" x="550" y="142"/>
        <ellipse cx="565" cy="158" fill="#B4A7E5" rx="11" ry="11" style="stroke: #A80036; stroke-width: 1.0;"/>
        <path d="M560.9277,153.7651 L560.9277,151.6069 L568.3071,151.6069 L568.3071,153.7651 L565.8418,153.7651 L565.8418,161.8418 L568.3071,161.8418 L568.3071,164 L560.9277,164 L560.9277,161.8418 L563.3931,161.8418 L563.3931,153.7651 Z "/>
        <text fill="#000000" font-family="sans-serif" font-size="12" font-style="italic" lengthAdjust="spacingAndGlyphs" textLength="77" x="579" y="162.5352">IImageWidget</text>
        <line style="stroke: #A80036; stroke-width: 1.5;" x1="551" x2="658" y1="174" y2="174"/>
        <line style="stroke: #A80036; stroke-width: 1.5;" x1="551" x2="658" y1="182" y2="182"/><!--class DesktopFactory-->
        <rect fill="#FEFECE" filter="url(#fl3jsvt)" height="48" style="stroke: #A80036; stroke-width: 1.5;" width="121" x="236" y="142"/>
        <ellipse cx="251" cy="158" fill="#ADD1B2" rx="11" ry="11" style="stroke: #A80036; stroke-width: 1.0;"/>
        <path d="M253.9731,163.6431 Q253.3921,163.9419 252.7529,164.0913 Q252.1138,164.2407 251.4082,164.2407 Q248.9014,164.2407 247.5815,162.5889 Q246.2617,160.937 246.2617,157.8159 Q246.2617,154.6865 247.5815,153.0347 Q248.9014,151.3828 251.4082,151.3828 Q252.1138,151.3828 252.7612,151.5322 Q253.4087,151.6816 253.9731,151.9805 L253.9731,154.7031 Q253.3423,154.1221 252.7488,153.8523 Q252.1553,153.5825 251.5244,153.5825 Q250.1797,153.5825 249.4949,154.6492 Q248.8101,155.7158 248.8101,157.8159 Q248.8101,159.9077 249.4949,160.9744 Q250.1797,162.041 251.5244,162.041 Q252.1553,162.041 252.7488,161.7712 Q253.3423,161.5015 253.9731,160.9204 Z "/>
        <text fill="#000000" font-family="sans-serif" font-size="12" lengthAdjust="spacingAndGlyphs" textLength="89" x="265" y="162.5352">DesktopFactory</text>
        <line style="stroke: #A80036; stroke-width: 1.5;" x1="237" x2="356" y1="174" y2="174"/>
        <line style="stroke: #A80036; stroke-width: 1.5;" x1="237" x2="356" y1="182" y2="182"/><!--class MobileFactory-->
        <rect fill="#FEFECE" filter="url(#fl3jsvt)" height="48" style="stroke: #A80036; stroke-width: 1.5;" width="111" x="392" y="142"/>
        <ellipse cx="407" cy="158" fill="#ADD1B2" rx="11" ry="11" style="stroke: #A80036; stroke-width: 1.0;"/>
        <path d="M409.9731,163.6431 Q409.3921,163.9419 408.7529,164.0913 Q408.1138,164.2407 407.4082,164.2407 Q404.9014,164.2407 403.5815,162.5889 Q402.2617,160.937 402.2617,157.8159 Q402.2617,154.6865 403.5815,153.0347 Q404.9014,151.3828 407.4082,151.3828 Q408.1138,151.3828 408.7612,151.5322 Q409.4087,151.6816 409.9731,151.9805 L409.9731,154.7031 Q409.3423,154.1221 408.7488,153.8523 Q408.1553,153.5825 407.5244,153.5825 Q406.1797,153.5825 405.4949,154.6492 Q404.8101,155.7158 404.8101,157.8159 Q404.8101,159.9077 405.4949,160.9744 Q406.1797,162.041 407.5244,162.041 Q408.1553,162.041 408.7488,161.7712 Q409.3423,161.5015 409.9731,160.9204 Z "/>
        <text fill="#000000" font-family="sans-serif" font-size="12" lengthAdjust="spacingAndGlyphs" textLength="79" x="421" y="162.5352">MobileFactory</text>
        <line style="stroke: #A80036; stroke-width: 1.5;" x1="393" x2="502" y1="174" y2="174"/>
        <line style="stroke: #A80036; stroke-width: 1.5;" x1="393" x2="502" y1="182" y2="182"/><!--class DesktopTextWidget-->
        <rect fill="#FEFECE" filter="url(#fl3jsvt)" height="48" style="stroke: #A80036; stroke-width: 1.5;" width="145" x="6" y="250"/>
        <ellipse cx="21" cy="266" fill="#ADD1B2" rx="11" ry="11" style="stroke: #A80036; stroke-width: 1.0;"/>
        <path d="M23.9731,271.6431 Q23.3921,271.9419 22.7529,272.0913 Q22.1138,272.2407 21.4082,272.2407 Q18.9014,272.2407 17.5815,270.5889 Q16.2617,268.937 16.2617,265.8159 Q16.2617,262.6865 17.5815,261.0347 Q18.9014,259.3828 21.4082,259.3828 Q22.1138,259.3828 22.7612,259.5322 Q23.4087,259.6816 23.9731,259.9805 L23.9731,262.7031 Q23.3423,262.1221 22.7488,261.8523 Q22.1553,261.5825 21.5244,261.5825 Q20.1797,261.5825 19.4949,262.6492 Q18.8101,263.7158 18.8101,265.8159 Q18.8101,267.9077 19.4949,268.9744 Q20.1797,270.041 21.5244,270.041 Q22.1553,270.041 22.7488,269.7712 Q23.3423,269.5015 23.9731,268.9204 Z "/>
        <text fill="#000000" font-family="sans-serif" font-size="12" lengthAdjust="spacingAndGlyphs" textLength="113" x="35" y="270.5352">DesktopTextWidget</text>
        <line style="stroke: #A80036; stroke-width: 1.5;" x1="7" x2="150" y1="282" y2="282"/>
        <line style="stroke: #A80036; stroke-width: 1.5;" x1="7" x2="150" y1="290" y2="290"/><!--class DesktopImageWidget-->
        <rect fill="#FEFECE" filter="url(#fl3jsvt)" height="48" style="stroke: #A80036; stroke-width: 1.5;" width="154" x="356.5" y="250"/>
        <ellipse cx="371.5" cy="266" fill="#ADD1B2" rx="11" ry="11" style="stroke: #A80036; stroke-width: 1.0;"/>
        <path d="M374.4731,271.6431 Q373.8921,271.9419 373.2529,272.0913 Q372.6138,272.2407 371.9082,272.2407 Q369.4014,272.2407 368.0815,270.5889 Q366.7617,268.937 366.7617,265.8159 Q366.7617,262.6865 368.0815,261.0347 Q369.4014,259.3828 371.9082,259.3828 Q372.6138,259.3828 373.2612,259.5322 Q373.9087,259.6816 374.4731,259.9805 L374.4731,262.7031 Q373.8423,262.1221 373.2488,261.8523 Q372.6553,261.5825 372.0244,261.5825 Q370.6797,261.5825 369.9949,262.6492 Q369.3101,263.7158 369.3101,265.8159 Q369.3101,267.9077 369.9949,268.9744 Q370.6797,270.041 372.0244,270.041 Q372.6553,270.041 373.2488,269.7712 Q373.8423,269.5015 374.4731,268.9204 Z "/>
        <text fill="#000000" font-family="sans-serif" font-size="12" lengthAdjust="spacingAndGlyphs" textLength="122" x="385.5" y="270.5352">DesktopImageWidget</text>
        <line style="stroke: #A80036; stroke-width: 1.5;" x1="357.5" x2="509.5" y1="282" y2="282"/>
        <line style="stroke: #A80036; stroke-width: 1.5;" x1="357.5" x2="509.5" y1="290" y2="290"/><!--class MobileTextWidget-->
        <rect fill="#FEFECE" filter="url(#fl3jsvt)" height="48" style="stroke: #A80036; stroke-width: 1.5;" width="135" x="186" y="250"/>
        <ellipse cx="201" cy="266" fill="#ADD1B2" rx="11" ry="11" style="stroke: #A80036; stroke-width: 1.0;"/>
        <path d="M203.9731,271.6431 Q203.3921,271.9419 202.7529,272.0913 Q202.1138,272.2407 201.4082,272.2407 Q198.9014,272.2407 197.5815,270.5889 Q196.2617,268.937 196.2617,265.8159 Q196.2617,262.6865 197.5815,261.0347 Q198.9014,259.3828 201.4082,259.3828 Q202.1138,259.3828 202.7612,259.5322 Q203.4087,259.6816 203.9731,259.9805 L203.9731,262.7031 Q203.3423,262.1221 202.7488,261.8523 Q202.1553,261.5825 201.5244,261.5825 Q200.1797,261.5825 199.4949,262.6492 Q198.8101,263.7158 198.8101,265.8159 Q198.8101,267.9077 199.4949,268.9744 Q200.1797,270.041 201.5244,270.041 Q202.1553,270.041 202.7488,269.7712 Q203.3423,269.5015 203.9731,268.9204 Z "/>
        <text fill="#000000" font-family="sans-serif" font-size="12" lengthAdjust="spacingAndGlyphs" textLength="103" x="215" y="270.5352">MobileTextWidget</text>
        <line style="stroke: #A80036; stroke-width: 1.5;" x1="187" x2="320" y1="282" y2="282"/>
        <line style="stroke: #A80036; stroke-width: 1.5;" x1="187" x2="320" y1="290" y2="290"/><!--class MobileImageWidget-->
        <rect fill="#FEFECE" filter="url(#fl3jsvt)" height="48" style="stroke: #A80036; stroke-width: 1.5;" width="144" x="545.5" y="250"/>
        <ellipse cx="560.5" cy="266" fill="#ADD1B2" rx="11" ry="11" style="stroke: #A80036; stroke-width: 1.0;"/>
        <path d="M563.4731,271.6431 Q562.8921,271.9419 562.2529,272.0913 Q561.6138,272.2407 560.9082,272.2407 Q558.4014,272.2407 557.0815,270.5889 Q555.7617,268.937 555.7617,265.8159 Q555.7617,262.6865 557.0815,261.0347 Q558.4014,259.3828 560.9082,259.3828 Q561.6138,259.3828 562.2612,259.5322 Q562.9087,259.6816 563.4731,259.9805 L563.4731,262.7031 Q562.8423,262.1221 562.2488,261.8523 Q561.6553,261.5825 561.0244,261.5825 Q559.6797,261.5825 558.9949,262.6492 Q558.3101,263.7158 558.3101,265.8159 Q558.3101,267.9077 558.9949,268.9744 Q559.6797,270.041 561.0244,270.041 Q561.6553,270.041 562.2488,269.7712 Q562.8423,269.5015 563.4731,268.9204 Z "/>
        <text fill="#000000" font-family="sans-serif" font-size="12" lengthAdjust="spacingAndGlyphs" textLength="112" x="574.5" y="270.5352">MobileImageWidget</text>
        <line style="stroke: #A80036; stroke-width: 1.5;" x1="546.5" x2="688.5" y1="282" y2="282"/>
        <line style="stroke: #A80036; stroke-width: 1.5;" x1="546.5" x2="688.5" y1="290" y2="290"/>
        <path d="M337.7998,99.3696 C328.5435,114.3031 318.9752,129.74 311.382,141.9903 " fill="none" style="stroke: #A80036; stroke-width: 1.0; stroke-dasharray: 7.0,7.0;"/>
        <polygon fill="none" points="331.899,95.6028,348.3856,82.2913,343.7985,102.9785,331.899,95.6028" style="stroke: #A80036; stroke-width: 1.0;"/>
        <path d="M405.6495,99.3696 C415.0292,114.3031 424.7251,129.74 432.4196,141.9903 " fill="none" style="stroke: #A80036; stroke-width: 1.0; stroke-dasharray: 7.0,7.0;"/>
        <polygon fill="none" points="399.6327,102.9509,394.9226,82.2913,411.4881,95.5044,399.6327,102.9509" style="stroke: #A80036; stroke-width: 1.0;"/>
        <path d="M107.4577,208.8452 C101.2611,222.7875 94.6035,237.7671 89.2362,249.8436 " fill="none" style="stroke: #A80036; stroke-width: 1.0; stroke-dasharray: 7.0,7.0;"/>
        <polygon fill="none" points="101.2084,205.6706,115.7279,190.2373,114.0017,211.3565,101.2084,205.6706" style="stroke: #A80036; stroke-width: 1.0;"/>
        <path d="M549.002,201.0514 C523.7482,217.0012 494.4952,235.4767 471.7477,249.8436 " fill="none" style="stroke: #A80036; stroke-width: 1.0; stroke-dasharray: 7.0,7.0;"/>
        <polygon fill="none" points="545.4765,194.9988,566.1243,190.2373,552.9524,206.8356,545.4765,194.9988" style="stroke: #A80036; stroke-width: 1.0;"/>
        <path d="M170.456,203.3799 C188.5614,218.7767 209.0156,236.1708 225.0938,249.8436 " fill="none" style="stroke: #A80036; stroke-width: 1.0; stroke-dasharray: 7.0,7.0;"/>
        <polygon fill="none" points="165.7024,208.5263,155.0013,190.2373,174.7719,197.8612,165.7024,208.5263" style="stroke: #A80036; stroke-width: 1.0;"/>
        <path d="M609.8313,210.2911 C611.4595,223.8171 613.1888,238.1835 614.5923,249.8436 " fill="none" style="stroke: #A80036; stroke-width: 1.0; stroke-dasharray: 7.0,7.0;"/>
        <polygon fill="none" points="602.8579,210.9306,607.4175,190.2373,616.7575,209.2574,602.8579,210.9306" style="stroke: #A80036; stroke-width: 1.0;"/>
        <path d="M174.8301,45 C184.6432,45 194.4563,45 204.2693,45 " fill="none" style="stroke: #A80036; stroke-width: 1.0;"/>
        <polygon fill="#A80036" points="209.401,45,200.401,41,204.401,45,200.401,49,209.401,45" style="stroke: #A80036; stroke-width: 1.0;"/>
        <path d="M247.8479,190.1029 C213.3805,207.1785 167.1573,230.0781 131.7106,247.6388 " fill="none" style="stroke: #A80036; stroke-width: 1.0;"/>
        <polygon fill="#A80036" points="127.0034,249.9708,136.8437,249.5598,131.4837,247.7512,133.2923,242.3913,127.0034,249.9708" style="stroke: #A80036; stroke-width: 1.0;"/>
        <path d="M327.2455,190.2373 C348.4862,206.9819 376.7704,229.2788 398.8164,246.6582 " fill="none" style="stroke: #A80036; stroke-width: 1.0;"/>
        <polygon fill="#A80036" points="402.8571,249.8436,398.2656,241.1305,398.9305,246.7481,393.3129,247.4131,402.8571,249.8436" style="stroke: #A80036; stroke-width: 1.0;"/>
        <path d="M403.9626,190.2373 C373.51,207.1903 332.8338,229.8348 301.4524,247.3049 " fill="none" style="stroke: #A80036; stroke-width: 1.0;"/>
        <polygon fill="#A80036" points="296.8921,249.8436,306.7013,248.9606,301.2607,247.4114,302.8098,241.9708,296.8921,249.8436" style="stroke: #A80036; stroke-width: 1.0;"/>
        <path d="M485.6513,190.2373 C512.2272,207.1208 547.6887,229.6493 575.1414,247.0898 " fill="none" style="stroke: #A80036; stroke-width: 1.0;"/>
        <polygon fill="#A80036" points="579.476,249.8436,574.0244,241.6412,575.2557,247.1624,569.7345,248.3937,579.476,249.8436" style="stroke: #A80036; stroke-width: 1.0;"/>
    </g>
</svg>